<svg id="Layer_1" height="512" viewBox="0 0 512 512" width="512" xmlns="http://www.w3.org/2000/svg" data-name="Layer 1"><path d="m474.775 283.164a6 6 0 0 0 -6.825 5.042 215.124 215.124 0 0 1 -65.684 124.7 212.635 212.635 0 0 1 -356.9-143.092c-.406-6.305-.531-12.645-.387-18.958l14.235 14.574a6 6 0 1 0 8.584-8.386l-23.61-24.168a6 6 0 0 0 -4.251-1.807h-.037a6 6 0 0 0 -4.235 1.75l-23.9 23.818a6 6 0 1 0 8.472 8.5l12.712-12.67c-.087 6.038.054 12.093.442 18.117a224.985 224.985 0 0 0 75.918 155.186 222.3 222.3 0 0 0 148 56.235q7.38 0 14.823-.483a224.534 224.534 0 0 0 138.33-59.846 227.173 227.173 0 0 0 69.359-131.686 6 6 0 0 0 -5.046-6.826z"/><path d="m499.558 211.046a6 6 0 0 0 -8.389 1.273l-10.722 14.559a224.71 224.71 0 0 0 -74.507-140.647 223.765 223.765 0 0 0 -293.2-2.992 225.125 225.125 0 0 0 -72.991 117.233 6 6 0 0 0 11.636 2.93 213.2 213.2 0 0 1 69.126-111.018 211.765 211.765 0 0 1 277.482 2.839 212.819 212.819 0 0 1 70.778 134.977l-16.165-12.151a6 6 0 0 0 -7.21 9.593l26.948 20.258a6 6 0 0 0 3.605 1.2 6.09 6.09 0 0 0 .872-.063 6 6 0 0 0 3.96-2.379l20.05-27.227a6 6 0 0 0 -1.273-8.385z"/><path d="m316.124 151.393a6 6 0 0 0 -8.193 2.21l-111.146 193.282a6 6 0 1 0 10.4 5.983l111.149-193.282a6 6 0 0 0 -2.21-8.193z"/><path d="m291.909 254.7c-8.268 12.08-12.822 28.032-12.822 44.915s4.554 32.835 12.822 44.915c8.745 12.776 20.6 19.812 33.375 19.812s24.63-7.036 33.374-19.812c8.269-12.08 12.822-28.031 12.822-44.915s-4.553-32.835-12.822-44.915c-8.744-12.776-20.6-19.812-33.374-19.812s-24.63 7.037-33.375 19.812zm33.375-7.812c18.856 0 34.2 23.654 34.2 52.727s-15.34 52.727-34.2 52.727-34.2-23.653-34.2-52.727 15.344-52.726 34.2-52.726z"/><path d="m186.716 150.594c-12.777 0-24.63 7.036-33.374 19.812-8.269 12.08-12.822 28.032-12.822 44.915s4.553 32.835 12.822 44.915c8.744 12.776 20.6 19.812 33.374 19.812s24.63-7.036 33.375-19.812c8.268-12.08 12.822-28.031 12.822-44.915s-4.554-32.835-12.822-44.915c-8.745-12.776-20.598-19.812-33.375-19.812zm0 117.454c-18.856 0-34.2-23.653-34.2-52.727s15.34-52.727 34.2-52.727 34.2 23.654 34.2 52.727-15.344 52.727-34.2 52.727z"/></svg>